<?xml version="1.0"?>
<svg xmlns="http://www.w3.org/2000/svg" xmlns:xlink="http://www.w3.org/1999/xlink" xmlns:svgjs="http://svgjs.com/svgjs" version="1.1" width="45" height="45" x="0" y="0" viewBox="0 0 64 64" style="enable-background:new 0 0 512 512" xml:space="preserve" class=""><g><path xmlns="http://www.w3.org/2000/svg" d="m2 13v25h5v-19h-3v-5h3v-2h-4a1 1 0 0 0 -1 1z" fill="" data-original="#000000" style=""/><path xmlns="http://www.w3.org/2000/svg" d="m61 12h-4v2h3v5h-3v18h5v-24a1 1 0 0 0 -1-1z" fill="" data-original="#000000" style=""/><path xmlns="http://www.w3.org/2000/svg" d="m8 11h2v4h-2z" fill="" data-original="#000000" style=""/><path xmlns="http://www.w3.org/2000/svg" d="m16 57h6v4h-6z" fill="" data-original="#000000" style=""/><path xmlns="http://www.w3.org/2000/svg" d="m47 3h-30a5.009 5.009 0 0 0 -4.9 4h39.8a5.009 5.009 0 0 0 -4.9-4z" fill="" data-original="#000000" style=""/><path xmlns="http://www.w3.org/2000/svg" d="m42 57h6v4h-6z" fill="" data-original="#000000" style=""/><path xmlns="http://www.w3.org/2000/svg" d="m22.67 46.393a1 1 0 0 0 -.774-.481l-9.896-.825v3.913h12.233z" fill="" data-original="#000000" style=""/><path xmlns="http://www.w3.org/2000/svg" d="m47.584 39h-28.716l-1.036 1.555-1.664-1.11.3-.445h-.049a7.027 7.027 0 0 1 -3.13-.739l-1.289-.643v5.462l10.062.838a3.09 3.09 0 0 1 .4.082h19.08a3.09 3.09 0 0 1 .4-.082l10.058-.838v-5.462l-1.286.643a7.027 7.027 0 0 1 -3.13.739z" fill="" data-original="#000000" style=""/><path xmlns="http://www.w3.org/2000/svg" d="m12 35.382 2.181 1.09a5.027 5.027 0 0 0 2.235.528h1.384l2.37-3.555a1 1 0 0 1 .83-.445h25v2h-24.465l-1.335 2h27.384a5.027 5.027 0 0 0 2.235-.528l2.181-1.09v-26.382h-40z" fill="" data-original="#000000" style=""/><path xmlns="http://www.w3.org/2000/svg" d="m54 11h2v4h-2z" fill="" data-original="#000000" style=""/><path xmlns="http://www.w3.org/2000/svg" d="m25.961 48h12.078c0-.01.007-.02.013-.03l1.182-1.97h-14.468l1.182 1.971c.006.009.007.02.013.029z" fill="" data-original="#000000" style=""/><path xmlns="http://www.w3.org/2000/svg" d="m41.33 46.394-1.563 2.606h12.233v-3.913l-9.9.825a1 1 0 0 0 -.77.482z" fill="" data-original="#000000" style=""/><path xmlns="http://www.w3.org/2000/svg" d="m38.037 50h-12.074a1.976 1.976 0 0 1 -1.73 1h-12.233v1a3 3 0 0 0 3 3h34a3 3 0 0 0 3-3v-1h-12.233a1.976 1.976 0 0 1 -1.73-1z" fill="" data-original="#000000" style=""/></g></svg>
