<?xml version="1.0"?>
<svg xmlns="http://www.w3.org/2000/svg" xmlns:xlink="http://www.w3.org/1999/xlink" xmlns:svgjs="http://svgjs.com/svgjs" version="1.1" width="45" height="45" x="0" y="0" viewBox="0 0 512 512" style="enable-background:new 0 0 512 512" xml:space="preserve" class=""><g><path xmlns="http://www.w3.org/2000/svg" d="m187.135 321.305-2.128-1.534a10.657 10.657 0 0 0 -14.857 2.415l-20.076 27.865a10.642 10.642 0 0 0 2.415 14.857l2.127 1.533a10.655 10.655 0 0 0 14.857-2.414l20.076-27.865a10.656 10.656 0 0 0 -2.414-14.857z" fill="" data-original="#000000" style="" class=""/><path xmlns="http://www.w3.org/2000/svg" d="m170.94 298.65a10.578 10.578 0 0 0 -4.284-6.929l-2.128-1.533a10.653 10.653 0 0 0 -14.857 2.414l-27.109 37.628a10.642 10.642 0 0 0 2.414 14.856l2.128 1.534a10.656 10.656 0 0 0 14.857-2.414l27.109-37.628a10.572 10.572 0 0 0 1.87-7.928z" fill="" data-original="#000000" style="" class=""/><path xmlns="http://www.w3.org/2000/svg" d="m208.892 349.113-2.128-1.533a10.654 10.654 0 0 0 -14.856 2.42l-14.321 19.878a10.643 10.643 0 0 0 2.413 14.851l2.128 1.533a10.654 10.654 0 0 0 14.857-2.414l14.321-19.878a10.655 10.655 0 0 0 -2.414-14.857z" fill="" data-original="#000000" style="" class=""/><path xmlns="http://www.w3.org/2000/svg" d="m174.981 157.8-88.023-50.617-71.819 137.5 87.961 49.217a3.142 3.142 0 0 0 4.338-1.269l68.652-130.712a3.149 3.149 0 0 0 -1.109-4.119zm-81.927 4.96-31.511 59.128a5 5 0 0 1 -8.825-4.7l31.511-59.128a5 5 0 1 1 8.825 4.7zm12.228-22.945-3.763 7.06a5 5 0 1 1 -8.825-4.7l3.763-7.06a5 5 0 1 1 8.825 4.7z" fill="" data-original="#000000" style="" class=""/><path xmlns="http://www.w3.org/2000/svg" d="m326.687 176.992c-12.456 2.67-21.351 2.358-33.992-1.195l-26.554-7.464a30.186 30.186 0 0 0 -17.272.28l-25.628 8.106a30.147 30.147 0 0 0 -18.707 17.042l-19.393 52.618a29.042 29.042 0 0 0 25.337-3.033 28.1 28.1 0 0 0 12.5-20.734 27.36 27.36 0 0 1 .948-5.068 38.428 38.428 0 0 1 3.022-7.506c4.186-7.755 10.39-11.871 17.942-11.9a6.591 6.591 0 0 1 1.378.188l12.012 3.389a36.762 36.762 0 0 1 15.871 9.242l90.808 87.143a42.192 42.192 0 0 0 16.79-15.688l-50.573-107.235z" fill="" data-original="#000000" style="" class=""/><path xmlns="http://www.w3.org/2000/svg" d="m334.26 149.818c-.079.036-.158.069-.238.1a3.143 3.143 0 0 0 -1.691 4.265l63.392 134.417a3.127 3.127 0 0 0 4.04 1.564l97.128-45.464-65.259-139.19z" fill="" data-original="#000000" style="" class=""/><path xmlns="http://www.w3.org/2000/svg" d="m230.65 376.922-2.128-1.533a10.656 10.656 0 0 0 -14.857 2.414l-8.566 11.89a10.654 10.654 0 0 0 2.414 14.857l2.128 1.533a10.654 10.654 0 0 0 14.856-2.414l8.567-11.89a10.657 10.657 0 0 0 -2.414-14.857z" fill="" data-original="#000000" style="" class=""/><path xmlns="http://www.w3.org/2000/svg" d="m374 319.112-106.883-101.046a26.776 26.776 0 0 0 -11.556-6.73l-11.261-3.175c-6.713.5-9.764 8.586-10.831 12.382a17.142 17.142 0 0 0 -.541 3.018v.012a38.059 38.059 0 0 1 -16.908 28.1 38.731 38.731 0 0 1 -37.425 2.872l-1.683-.749a5 5 0 0 1 -2.717-6.125l21.106-57.75a40.5 40.5 0 0 1 3.432-6.419 51.093 51.093 0 0 0 -23.184.956l-52.9 100.721 11.62 11.7 7.288-10.116a20.643 20.643 0 0 1 28.815-4.682l1.769 1.275a21.253 21.253 0 0 1 8.029 10.948 20.538 20.538 0 0 1 -.5 13.5 20.508 20.508 0 0 1 11.18 3.858l2.128 1.533a20.661 20.661 0 0 1 7.762 22.406 20.506 20.506 0 0 1 11.867 3.87l2.131 1.529a20.66 20.66 0 0 1 7.761 22.406 20.5 20.5 0 0 1 11.868 3.869l2.128 1.534a20.659 20.659 0 0 1 7.764 22.4l12.143 9.7q.075.06.147.123a13.594 13.594 0 0 0 17.775-20.574l-9.988-8.627a5.069 5.069 0 0 1 1.889-8.667 4.464 4.464 0 0 1 4.648 1.1l17.858 15.426a13.856 13.856 0 0 0 19.011-.634 13.61 13.61 0 0 0 -.938-19.681l-17.995-15.545a5.147 5.147 0 0 1 -.981-6.807 5 5 0 0 1 7.355-.9l26.327 22.742a13.593 13.593 0 0 0 17.815-20.535l-26.207-22.642a5.145 5.145 0 0 1 -.98-6.806 5 5 0 0 1 7.355-.9l36.307 31.366a13.452 13.452 0 0 0 9.879 3.265 13.647 13.647 0 0 0 9.362-4.737l.044-.05a13.577 13.577 0 0 0 3.423-9.434 12.979 12.979 0 0 0 -4.508-9.28z" fill="" data-original="#000000" style="" class=""/></g></svg>
