<svg id="Solid" height="512" viewBox="0 0 512 512" width="512" xmlns="http://www.w3.org/2000/svg"><path d="m440 96h-40a8 8 0 0 1 -8-8v-40a16.019 16.019 0 0 0 -16-16h-304v448h368zm-296 288h-32a8 8 0 0 1 0-16h32a8 8 0 0 1 0 16zm0-32h-32a8 8 0 0 1 0-16h32a8 8 0 0 1 0 16zm0-32h-32a8 8 0 0 1 0-16h32a8 8 0 0 1 0 16zm0-32h-32a8 8 0 0 1 0-16h32a8 8 0 0 1 0 16zm0-32h-32a8 8 0 0 1 0-16h32a8 8 0 0 1 0 16zm-56-128a80 80 0 1 1 80 80 80.091 80.091 0 0 1 -80-80zm232 192h-128a8 8 0 0 1 0-16h128a8 8 0 0 1 0 16zm8 24a8 8 0 0 1 -8 8h-128a8 8 0 0 1 0-16h128a8 8 0 0 1 8 8zm-8-56h-128a8 8 0 0 1 0-16h128a8 8 0 0 1 0 16zm0-32h-128a8 8 0 0 1 0-16h128a8 8 0 0 1 0 16zm-136 120a8 8 0 0 1 8-8h128a8 8 0 0 1 0 16h-128a8 8 0 0 1 -8-8zm216 88h-128a8 8 0 0 1 0-16h128a8 8 0 0 1 0 16zm0-32h-64a8 8 0 0 1 0-16h64a8 8 0 0 1 0 16zm0-48h-16a8 8 0 0 1 0-16h16a8 8 0 0 1 0 16zm0-32h-16a8 8 0 0 1 0-16h16a8 8 0 0 1 0 16zm0-32h-16a8 8 0 0 1 0-16h16a8 8 0 0 1 0 16zm0-32h-16a8 8 0 0 1 0-16h16a8 8 0 0 1 0 16zm0-32h-16a8 8 0 0 1 0-16h16a8 8 0 0 1 0 16zm0-48h-120a8 8 0 0 1 0-16h120a8 8 0 0 1 0 16zm0-32h-120a8 8 0 0 1 0-16h120a8 8 0 0 1 0 16zm0-32h-80a8 8 0 0 1 0-16h80a8 8 0 0 1 0 16z"/><path d="m168 64a64 64 0 1 0 64 64 64.072 64.072 0 0 0 -64-64zm0 56a24 24 0 0 1 8 46.624v1.376a8 8 0 0 1 -16 0v-1.376a24.039 24.039 0 0 1 -16-22.624 8 8 0 0 1 16 0 8 8 0 1 0 8-8 24 24 0 0 1 -8-46.624v-1.376a8 8 0 0 1 16 0v1.376a24.039 24.039 0 0 1 16 22.624 8 8 0 0 1 -16 0 8 8 0 1 0 -8 8z"/><path d="m408 80h32v-24a24.028 24.028 0 0 0 -24-24h-12.3a31.8 31.8 0 0 1 4.3 16z"/></svg>