<?xml version="1.0" encoding="iso-8859-1"?>
<!-- Generator: Adobe Illustrator 19.0.0, SVG Export Plug-In . SVG Version: 6.00 Build 0)  -->
<svg version="1.1" id="Capa_1" xmlns="http://www.w3.org/2000/svg" xmlns:xlink="http://www.w3.org/1999/xlink" x="0px" y="0px"
	 viewBox="0 0 490 490" style="enable-background:new 0 0 490 490;" xml:space="preserve">
<g>
	<path d="M477.613,48.032l-42.378,30.895v303.914H0v21.035h35.916c-2.671,5.231-4.178,11.15-4.178,17.415
		c0,21.199,17.255,38.45,38.455,38.45c21.199,0,38.444-17.251,38.444-38.45c0-6.265-1.507-12.184-4.176-17.415h236.834
		c-2.671,5.231-4.178,11.15-4.178,17.415c0,21.199,17.255,38.45,38.454,38.45c21.2,0,38.455-17.251,38.455-38.45
		c0-6.265-1.508-12.184-4.178-17.415h46.423V89.619L490,65.031L477.613,48.032z M87.602,421.292c0,9.603-7.805,17.415-17.409,17.415
		c-9.604,0-17.42-7.811-17.42-17.415c0-9.604,7.817-17.415,17.42-17.415C79.797,403.877,87.602,411.688,87.602,421.292z
		 M392.99,421.292c0,9.603-7.817,17.415-17.42,17.415c-9.604,0-17.419-7.811-17.419-17.415c0-9.604,7.815-17.415,17.419-17.415
		C385.174,403.877,392.99,411.688,392.99,421.292z"/>
	<path d="M386.088,175.409H222.389v161.465h163.699V175.409z M365.053,315.839H243.424V196.444h121.629V315.839z"/>
	<path d="M366.05,30.258H242.427v118.928H366.05V30.258z M345.015,128.151h-81.553V51.293h81.553V128.151z"/>
	<path d="M195.438,175.409h-163.7v161.465h163.7V175.409z M174.403,315.839H52.773V196.444h121.63V315.839z"/>
</g>
<g>
</g>
<g>
</g>
<g>
</g>
<g>
</g>
<g>
</g>
<g>
</g>
<g>
</g>
<g>
</g>
<g>
</g>
<g>
</g>
<g>
</g>
<g>
</g>
<g>
</g>
<g>
</g>
<g>
</g>
</svg>
