<svg xmlns="http://www.w3.org/2000/svg" viewBox="0 0 144.12 43.85"><defs><style>.cls-1{fill:#fff;}</style></defs><title>Icono1B</title><g id="Layer_2" data-name="Layer 2"><g id="Layer_1-2" data-name="Layer 1"><path class="cls-1" d="M59.87,35.38H58.13c-.27,0-.68,0-1.19,0H55.07a6.41,6.41,0,0,1-3.6-1.74,5.81,5.81,0,0,1-.79-1,6.8,6.8,0,0,1-.89-3,.07.07,0,0,1,0,0v-.15l0-9.79.69,0a28.6,28.6,0,0,0-.37-6.34h-.34q0-6.25,0-12.52A.91.91,0,0,0,48.87,0H24.06A24.06,24.06,0,0,0,0,24.06V42.39a.91.91,0,0,0,.91.91l4.09,0H6a1.66,1.66,0,0,0,1.47-1.52c0-.87-.07-1.78-.07-2.72s0-2,0-3a2.72,2.72,0,0,0,1.45-.6c2.12-1.82.6-7.33-1-7.76a.65.65,0,0,0-.45.06V23.68A17.39,17.39,0,0,1,24.81,7.43H42v6H41a34,34,0,0,0,.21,6.37c.21,0,.41,0,.62,0H42c0,4.67,0,8.05,0,9.76A13.54,13.54,0,0,0,43,35a16.06,16.06,0,0,0,1.81,3.08l.42.51h0a13.18,13.18,0,0,0,4.24,3.37h0l.36.18h0a13,13,0,0,0,4.33,1.16l0,0h0v0h5.74a.56.56,0,0,0,.56-.56q0-3.39,0-6.76A.57.57,0,0,0,59.87,35.38Z"/><path class="cls-1" d="M7.5,41.19V40h0Z"/><path class="cls-1" d="M74.39,13.53l7.43,0a1.57,1.57,0,0,1,1.57,1.58c0,1.56,0,3.12,0,4.68a1.58,1.58,0,0,1-1.58,1.57h-5a5.72,5.72,0,0,0-2.23.44,5.54,5.54,0,0,0-3,3,5.76,5.76,0,0,0-.44,2.23V41.71a1.59,1.59,0,0,1-1.58,1.59H65.13a1.59,1.59,0,0,1-1.58-1.59V24.1A10.49,10.49,0,0,1,67,15.89,10.29,10.29,0,0,1,74.39,13.53Z"/><path class="cls-1" d="M122.09,16.56a13.57,13.57,0,0,1,1.77-1.35A9,9,0,0,1,126.2,14a9.8,9.8,0,0,1,1.82-.33,26.15,26.15,0,0,1,4.23-.3,9.71,9.71,0,0,1,2.42.25,8.92,8.92,0,0,1,1.42.51A13.17,13.17,0,0,1,140.27,17a13.49,13.49,0,0,1,2.82,4.2,12.88,12.88,0,0,1,1,5.13V41.79a1.36,1.36,0,0,1-1.36,1.36H138a1.36,1.36,0,0,1-1.37-1.36V26.32a5.34,5.34,0,0,0-.44-2.18A5.58,5.58,0,0,0,135,22.33a5.91,5.91,0,0,0-1.78-1.21,5.51,5.51,0,0,0-2.18-.44,5.67,5.67,0,0,0-2.22.44,5.56,5.56,0,0,0-3,3,5.51,5.51,0,0,0-.44,2.18V41.79A1.36,1.36,0,0,1,124,43.15h-4.78a1.36,1.36,0,0,1-1.37-1.36V22"/><path class="cls-1" d="M121.69,19.72h-2l-.24-.15c-.54-1.13-1.06-2.27-1.61-3.39-.21-.43,0-1,.44-1h3.06C121.48,16.7,121.62,18.21,121.69,19.72Z"/><rect class="cls-1" x="117.8" y="17.7" width="2.84" height="5.08"/><path class="cls-1" d="M123.89,10.34h4.31a0,0,0,0,1,0,0v10.4a0,0,0,0,1,0,0h0a4.29,4.29,0,0,1-4.29-4.29V10.34A0,0,0,0,1,123.89,10.34Z" transform="translate(141.58 -110.5) rotate(90)"/><path class="cls-1" d="M93,27c0-.1,0-.18,0-.27C93,26.77,93,26.85,93,27Z"/><path class="cls-1" d="M92.94,27.62c0-.08,0-.16,0-.24C93,27.46,92.94,27.54,92.94,27.62Z"/><path class="cls-1" d="M93,28.31a1.93,1.93,0,0,1,0-.24A1.93,1.93,0,0,0,93,28.31Z"/><path class="cls-1" d="M93.13,26l.09-.4Z"/><path class="cls-1" d="M93.3,25.39l.12-.39Z"/><path class="cls-1" d="M93.51,24.77c0-.13.11-.26.17-.39C93.62,24.51,93.56,24.64,93.51,24.77Z"/><path class="cls-1" d="M93.94,32.15l0,.07h0c-.11-.23-.21-.46-.31-.68C93.75,31.74,93.84,32,93.94,32.15Z"/><path class="cls-1" d="M93.78,24.17c.06-.13.13-.26.2-.39C93.91,23.91,93.84,24,93.78,24.17Z"/><path class="cls-1" d="M93,29l0-.24Z"/><path class="cls-1" d="M93.44,30.93a1.8,1.8,0,0,0,.08.21l-.09-.25Z"/><path class="cls-1" d="M93.12,29.7a1.7,1.7,0,0,1,0-.22A1.7,1.7,0,0,0,93.12,29.7Z"/><path class="cls-1" d="M93.28,30.39l-.06-.21Z"/><path class="cls-1" d="M99.84,20.32h0Z"/><path class="cls-1" d="M99.26,20.36h0Z"/><path class="cls-1" d="M98.68,20.44l.19,0Z"/><path class="cls-1" d="M98.09,20.57l.23-.05Z"/><path class="cls-1" d="M96.11,21.46l-.32.21c-.17.14-.34.28-.5.43.16-.15.33-.29.51-.43Z"/><path class="cls-1" d="M94.09,23.6l.24-.38Z"/><path class="cls-1" d="M94.85,22.56a5,5,0,0,1,.39-.41A5,5,0,0,0,94.85,22.56Z"/><path class="cls-1" d="M97.5,20.75l.27-.08Z"/><path class="cls-1" d="M96.34,21.3l.3-.16Z"/><path class="cls-1" d="M96.92,21l.28-.13Z"/><path class="cls-1" d="M94.45,23.06a3.57,3.57,0,0,1,.3-.38A3.57,3.57,0,0,0,94.45,23.06Z"/><path class="cls-1" d="M110.89,35.6c-.49-.52-1.11-1.15-2-2l-.13-.13,0,0h0A1.37,1.37,0,0,0,107,33.4l-.85.86-.14.14h0a7.23,7.23,0,0,1-3.21,1.78,7.43,7.43,0,0,1-4-.08l13.48-16.25a1.21,1.21,0,0,0,0-1.53,15.3,15.3,0,0,0-1.82-1.87,15,15,0,0,0-3-2,15.65,15.65,0,0,0-3.34-1.27,15.05,15.05,0,0,0-3.61-.44,15.23,15.23,0,0,0-5.84,1.13,14.41,14.41,0,0,0-8,8.08,16.7,16.7,0,0,0-1.19,6.38,16.13,16.13,0,0,0,1.19,6.26,14.85,14.85,0,0,0,13.85,9.28,14.76,14.76,0,0,0,3.59-.43,13.22,13.22,0,0,0,2-.62A14.78,14.78,0,0,0,111,39.43h0l0,0h0l.84-.83a1.32,1.32,0,0,0,0-1.86ZM94,32.22h0l0-.07c-.1-.2-.19-.41-.28-.61s-.1-.27-.14-.4a1.8,1.8,0,0,1-.08-.21v0c-.06-.17-.1-.33-.15-.5l-.06-.21c0-.16-.07-.32-.1-.48a1.7,1.7,0,0,1,0-.22A4.11,4.11,0,0,1,93,29l0-.24c0-.15,0-.3,0-.46a1.93,1.93,0,0,1,0-.24v-.45c0-.08,0-.16,0-.24L93,27c0-.1,0-.18,0-.27s.07-.43.11-.64l.09-.4c0-.08,0-.16.08-.25l.12-.39.09-.23c0-.13.11-.26.17-.39a2,2,0,0,1,.1-.21c.06-.13.13-.26.2-.39a1.74,1.74,0,0,1,.11-.18l.24-.38.12-.16a3.57,3.57,0,0,1,.3-.38l.1-.12a5,5,0,0,1,.39-.41l.05,0c.16-.15.33-.29.5-.43l.32-.21.23-.16.3-.16.28-.14.28-.13.3-.12.27-.08.32-.1.23-.05.36-.08.19,0,.39-.05h.14a3.25,3.25,0,0,1,.44,0h.07a9.29,9.29,0,0,1,2.73.33Z"/><path class="cls-1" d="M115.8,13.31l11.57.06a12.11,12.11,0,0,0-9.57,9.41,9.81,9.81,0,0,0-.6-3.47A15.6,15.6,0,0,0,115,14.79.94.94,0,0,1,115.8,13.31Z"/><path class="cls-1" d="M59.54,13.37H57l-15.83,0h-.8c-1.25,0-1.88,0-2.63.07a46,46,0,0,0-6.1.75,43.51,43.51,0,0,0-13,4.81c-2.11,1.14-3.54,2.1-4,2.43s-1.45,1-2.76,2a33.28,33.28,0,0,0-2.62,2.26c-.73.71-1.3,1.34-1.71,1.82h0c-.1,7.61-.1,11.36-.06,13v1.52c0-.14,0-.31,0-.47,0,.05,0,.08,0,.08s.06-.53.19-1.32a15,15,0,0,1,1.82-4.91A20,20,0,0,1,13,31a32.51,32.51,0,0,1,4.67-4,38,38,0,0,1,4.59-2.72,38.39,38.39,0,0,1,7.55-3.07A43.32,43.32,0,0,1,36.72,20c1.62-.15,3.3-.16,3.3-.16.62,0,1.08,0,1.24,0,1.17,0,3.5,0,8.55,0,2.13,0,2.36,0,3.56,0s2.05,0,2.82-.07A1.65,1.65,0,0,0,57.54,19h0l.4-.63.31-.45h0l2.05-3.14A.92.92,0,0,0,59.54,13.37Z"/><path class="cls-1" d="M7.42,42.13v-.61l.13-.08a3.67,3.67,0,0,1-.07.42Z"/></g></g></svg>