<svg xmlns="http://www.w3.org/2000/svg" viewBox="0 0 145.54 104.24"><defs><style>.cls-1{fill:#511bc6;}</style></defs><title>Icono1-Solo</title><g id="Layer_2" data-name="Layer 2"><g id="Layer_1-2" data-name="Layer 1"><path class="cls-1" d="M143.34,32.19h-6.13l-.07,0-17.4,0q0-15,.1-30A2.2,2.2,0,0,0,117.65,0H57.93A57.93,57.93,0,0,0,0,57.93v44.12a2.2,2.2,0,0,0,2.2,2.19l9.85,0,1.79,0h.66v0a4,4,0,0,0,3.35-2.76v0h0a.57.57,0,0,0,0-.14L18,101l.06-.26c0-.12,0-.23.06-.35a4.75,4.75,0,0,0,.11-.67h0c.06-.55.15-1.39.33-2.43A35.88,35.88,0,0,1,22.89,85.5a48.46,48.46,0,0,1,8.5-10.81A79.74,79.74,0,0,1,42.64,65.2a88.06,88.06,0,0,1,11-6.56,92.93,92.93,0,0,1,18.16-7.38,103.15,103.15,0,0,1,16.55-3c3.9-.35,7.94-.39,7.94-.39,1.49,0,2.6,0,3,0l1.86,0c0,11.13,0,19.19,0,23.28a32.41,32.41,0,0,0,2.28,13,38.23,38.23,0,0,0,4.35,7.42c.33.42.68.83,1,1.24l0,0a31.77,31.77,0,0,0,10.2,8.11h0c.54.29.88.45.88.45v0a31.76,31.76,0,0,0,10.41,2.79l-.12-.07.14,0s0,.06,0,.09l13.82,0a1.35,1.35,0,0,0,1.36-1.35q0-8.15,0-16.27a1.37,1.37,0,0,0-1.36-1.37h-4.18c-.65,0-1.63,0-2.87,0h-4.51A15.25,15.25,0,0,1,123.91,81,14.6,14.6,0,0,1,122,78.56a14,14,0,0,1-1.06-2.19,15.76,15.76,0,0,1-1.07-4.94.5.5,0,0,0,0,.12v-.38l-.07-23.32h.12c5.14,0,5.69,0,8.58,0,2.62,0,4.92-.1,6.79-.16a4,4,0,0,0,3.24-1.83h0s0,0,0,0l1-1.5c.24-.37.49-.75.73-1.1h0l4.93-7.58A2.2,2.2,0,0,0,143.34,32.19Zm-52.56.29A107.1,107.1,0,0,0,76.1,34.29,103.92,103.92,0,0,0,63,37.75a109.79,109.79,0,0,0-18.23,8.1,111.36,111.36,0,0,0-9.7,5.86c-.91.61-3.48,2.38-6.65,4.91a78.74,78.74,0,0,0-6.29,5.44C20.38,63.77,19,65.29,18,66.43V57A41.87,41.87,0,0,1,59.73,17.9h41.42c0,5.07,0,9.87,0,14.37H99l-1.91,0C94.1,32.35,92.59,32.38,90.78,32.48Z"/></g></g></svg>