<svg xmlns="http://www.w3.org/2000/svg" xmlns:xlink="http://www.w3.org/1999/xlink" viewBox="0 0 183.32 183.32"><defs><style>.cls-1{fill:url(#linear-gradient);}.cls-2{fill:#511bc6;}.cls-3{fill:#ffea00;}</style><linearGradient id="linear-gradient" x1="91.66" x2="91.66" y2="183.32" gradientUnits="userSpaceOnUse"><stop offset="0" stop-color="#31d3cb"/><stop offset="0.36" stop-color="#30d1c9"/><stop offset="1" stop-color="#0ba89c"/></linearGradient></defs><title>Icono2</title><g id="Layer_2" data-name="Layer 2"><g id="Layer_1-2" data-name="Layer 1"><rect class="cls-1" width="183.32" height="183.32" rx="29.88"/><path class="cls-2" d="M77.91,103.67h-4.8a6.27,6.27,0,0,1-3.59-1.73,5.57,5.57,0,0,1-.8-1,7.05,7.05,0,0,1-.44-.91A6.59,6.59,0,0,1,67.84,98a.09.09,0,0,0,0,.05v-.16l0-9.78.7,0a28.57,28.57,0,0,0-.38-6.34h-.34q0-6.27,0-12.52a.9.9,0,0,0-.91-.91H42.11A24.07,24.07,0,0,0,18,92.35v18.33a.92.92,0,0,0,.92.91l4.09,0,.74,0h.28A1.65,1.65,0,0,0,25.54,110c-.05-.88-.07-1.79-.08-2.73s0-2,.05-3a2.7,2.7,0,0,0,1.45-.59c2.12-1.82.61-7.33-1-7.76a.66.66,0,0,0-.46,0V92A17.4,17.4,0,0,1,42.86,75.72h17.2c0,2.12,0,4.12,0,6h-1a35.72,35.72,0,0,0,.21,6.37h.79c0,4.67,0,8,0,9.76a13.36,13.36,0,0,0,1,5.4,16.16,16.16,0,0,0,1.8,3.09l.43.51h0a13,13,0,0,0,4.23,3.36h0l.37.19h0a13.23,13.23,0,0,0,4.32,1.16l0,0h.06v0H77.9a.58.58,0,0,0,.57-.57q0-3.37,0-6.76A.57.57,0,0,0,77.91,103.67Z"/><path class="cls-2" d="M25.54,109.48v-1.24h0Z"/><path class="cls-2" d="M92.44,81.81l7.42,0a1.58,1.58,0,0,1,1.57,1.58c0,1.56,0,3.13,0,4.69a1.57,1.57,0,0,1-1.57,1.57H94.79a5.76,5.76,0,0,0-2.23.44,5.64,5.64,0,0,0-1.81,1.21,5.42,5.42,0,0,0-1.21,1.82,5.5,5.5,0,0,0-.44,2.22V110a1.59,1.59,0,0,1-1.59,1.59H83.18A1.59,1.59,0,0,1,81.59,110V92.38a10.53,10.53,0,0,1,3.49-8.2A10.32,10.32,0,0,1,92.44,81.81Z"/><path class="cls-2" d="M140.14,84.85a11.93,11.93,0,0,1,1.76-1.35,9.24,9.24,0,0,1,2.35-1.2,11.1,11.1,0,0,1,1.81-.32,27.43,27.43,0,0,1,4.23-.31,9.63,9.63,0,0,1,2.43.26,9.15,9.15,0,0,1,1.41.51,13.2,13.2,0,0,1,7,7,12.81,12.81,0,0,1,1,5.13v15.46a1.36,1.36,0,0,1-1.36,1.37H156a1.36,1.36,0,0,1-1.36-1.37V94.61a5.6,5.6,0,0,0-.44-2.19,5.66,5.66,0,0,0-3-3,5.47,5.47,0,0,0-2.17-.44,5.76,5.76,0,0,0-2.23.44,5.61,5.61,0,0,0-3,3,5.43,5.43,0,0,0-.44,2.19v15.46a1.37,1.37,0,0,1-1.37,1.37h-4.78a1.36,1.36,0,0,1-1.36-1.37V90.29"/><path class="cls-2" d="M139.73,88h-2l-.24-.15c-.53-1.13-1.06-2.27-1.6-3.4-.21-.43,0-1,.43-1h3.06C139.53,85,139.66,86.49,139.73,88Z"/><rect class="cls-2" x="135.85" y="85.98" width="2.84" height="5.08"/><path class="cls-2" d="M141.93,78.63h4.31a0,0,0,0,1,0,0V89a0,0,0,0,1,0,0h0a4.29,4.29,0,0,1-4.29-4.29V78.63A0,0,0,0,1,141.93,78.63Z" transform="translate(227.91 -60.26) rotate(90)"/><path class="cls-2" d="M111,95.23a2.51,2.51,0,0,1,0-.27A2.51,2.51,0,0,0,111,95.23Z"/><path class="cls-2" d="M111,95.91c0-.08,0-.16,0-.24C111,95.75,111,95.83,111,95.91Z"/><path class="cls-2" d="M111,96.6v0Z"/><path class="cls-2" d="M111.18,94.33c0-.13,0-.27.09-.4C111.23,94.06,111.21,94.2,111.18,94.33Z"/><path class="cls-2" d="M111.34,93.68c0-.13.08-.26.13-.39C111.42,93.42,111.38,93.55,111.34,93.68Z"/><path class="cls-2" d="M111.56,93.05c0-.13.1-.26.16-.39C111.66,92.79,111.61,92.92,111.56,93.05Z"/><path class="cls-2" d="M112,100.44l0,.06h0a5.93,5.93,0,0,1-.31-.68C111.79,100,111.88,100.23,112,100.44Z"/><path class="cls-2" d="M111.82,92.45c.06-.13.13-.26.2-.38C112,92.19,111.88,92.32,111.82,92.45Z"/><path class="cls-2" d="M111.05,97.29a1.64,1.64,0,0,1,0-.23A1.64,1.64,0,0,0,111.05,97.29Z"/><path class="cls-2" d="M111.49,99.22c0,.07.05.14.07.2l-.09-.24S111.48,99.21,111.49,99.22Z"/><path class="cls-2" d="M111.16,98c0-.08,0-.15,0-.22S111.15,97.91,111.16,98Z"/><path class="cls-2" d="M111.32,98.68c0-.07,0-.14,0-.21S111.3,98.61,111.32,98.68Z"/><path class="cls-2" d="M117.88,88.61h0Z"/><path class="cls-2" d="M117.3,88.65l.15,0Z"/><path class="cls-2" d="M116.72,88.73l.19,0Z"/><path class="cls-2" d="M116.13,88.86l.24-.06Z"/><path class="cls-2" d="M114.15,89.75c-.1.07-.21.13-.31.21s-.34.28-.5.42c.16-.14.33-.29.5-.42S114.05,89.82,114.15,89.75Z"/><path class="cls-2" d="M112.13,91.88l.25-.38Z"/><path class="cls-2" d="M112.89,90.84l.39-.4Z"/><path class="cls-2" d="M115.54,89l.27-.08Z"/><path class="cls-2" d="M114.39,89.59l.3-.16Z"/><path class="cls-2" d="M115,89.28l.29-.12Z"/><path class="cls-2" d="M112.49,91.34c.09-.13.2-.25.3-.38C112.69,91.09,112.58,91.21,112.49,91.34Z"/><path class="cls-2" d="M128.93,103.89c-.49-.52-1.11-1.15-1.94-2l-.13-.13,0,0h0a1.11,1.11,0,0,0-.34-.24,1.33,1.33,0,0,0-1.49.18c-.28.29-.56.57-.85.85l-.14.15h0a7.27,7.27,0,0,1-7.16,1.69l13.48-16.24a1.22,1.22,0,0,0,0-1.53,16.05,16.05,0,0,0-1.81-1.88,15.5,15.5,0,0,0-3-2,15.08,15.08,0,0,0-6.94-1.7,15.19,15.19,0,0,0-5.84,1.13A14.54,14.54,0,0,0,108,85.3a14.72,14.72,0,0,0-3.23,4.92,16.66,16.66,0,0,0-1.18,6.38,16.16,16.16,0,0,0,1.18,6.26,15,15,0,0,0,3.23,4.9,14.7,14.7,0,0,0,4.79,3.22,14.85,14.85,0,0,0,5.84,1.16,15.34,15.34,0,0,0,3.59-.43,15.61,15.61,0,0,0,2-.62,14.88,14.88,0,0,0,4.92-3.37h0l0,0h0l.84-.83a1.34,1.34,0,0,0,0-1.87ZM112,100.5h0l0-.06c-.1-.21-.19-.41-.27-.62s-.1-.26-.15-.4,0-.13-.07-.2,0,0,0,0l-.15-.5c0-.07,0-.14,0-.21s-.08-.32-.11-.48,0-.15,0-.22-.05-.32-.07-.48a1.64,1.64,0,0,1,0-.23c0-.15,0-.31,0-.46v-.24c0-.15,0-.3,0-.45s0-.16,0-.24,0-.29,0-.44a2.51,2.51,0,0,1,0-.27c0-.21.06-.42.11-.63s0-.27.09-.4,0-.16.07-.25.08-.26.13-.39l.09-.24c0-.13.1-.26.16-.39l.1-.21c.06-.13.13-.26.2-.38l.11-.19.25-.38.11-.16c.09-.13.2-.25.3-.38l.1-.12.39-.4.06-.06c.16-.14.32-.29.5-.42s.21-.14.31-.21l.24-.16.3-.16.27-.15.29-.12.29-.12.27-.08.32-.1.24-.06.35-.07.19,0,.39,0,.15,0,.43,0H118a9.42,9.42,0,0,1,2.72.34Z"/><path class="cls-2" d="M133.84,81.6l11.57.05a12.08,12.08,0,0,0-9.56,9.42,9.72,9.72,0,0,0-.61-3.47,15.48,15.48,0,0,0-2.18-4.52A.94.94,0,0,1,133.84,81.6Z"/><path class="cls-2" d="M77.59,81.66H75c-5.83,0-15,0-15.83,0h-.79c-1.26,0-1.88,0-2.64.07a43.9,43.9,0,0,0-6.09.75A42.87,42.87,0,0,0,44.21,84a46.67,46.67,0,0,0-7.57,3.36,46.47,46.47,0,0,0-4,2.44c-.38.25-1.44,1-2.76,2a29.79,29.79,0,0,0-2.61,2.26c-.73.71-1.31,1.34-1.72,1.81h0c-.09,7.6-.1,11.36-.06,13v1.51c0-.14,0-.3.05-.46,0,0,0,.07,0,.07s.06-.52.19-1.31a15.15,15.15,0,0,1,1.82-4.91,20.41,20.41,0,0,1,3.53-4.49,33.82,33.82,0,0,1,4.68-3.94,36.26,36.26,0,0,1,4.59-2.73,38.71,38.71,0,0,1,7.54-3.06,42.68,42.68,0,0,1,6.88-1.27c1.61-.14,3.3-.16,3.3-.16H59.3c1.17,0,3.51,0,8.55,0,2.13,0,2.36,0,3.56,0s2,0,2.83-.07a1.67,1.67,0,0,0,1.34-.76h0a0,0,0,0,0,0,0l.41-.62.3-.46h0l2-3.15A.91.91,0,0,0,77.59,81.66Z"/><path class="cls-3" d="M25.46,110.41v-.6l.13-.09a3.41,3.41,0,0,1-.06.43C25.51,110.24,25.48,110.33,25.46,110.41Z"/></g></g></svg>