<svg xmlns="http://www.w3.org/2000/svg" xmlns:xlink="http://www.w3.org/1999/xlink" viewBox="0 0 184.14 184.14"><defs><style>.cls-1{fill:url(#linear-gradient);}.cls-2{fill:#511bc6;}</style><linearGradient id="linear-gradient" x1="92.07" x2="92.07" y2="184.14" gradientUnits="userSpaceOnUse"><stop offset="0" stop-color="#31d3cb"/><stop offset="0.36" stop-color="#30d1c9"/><stop offset="1" stop-color="#0ba89c"/></linearGradient></defs><title>Icono1</title><g id="Layer_2" data-name="Layer 2"><g id="Layer_1-2" data-name="Layer 1"><rect class="cls-1" width="184.14" height="184.14" rx="30.01"/><path class="cls-2" d="M165.09,72H158.9l-17.4,0q0-15,.1-30a2.2,2.2,0,0,0-2.2-2.2H79.69A57.93,57.93,0,0,0,21.76,97.68V141.8A2.19,2.19,0,0,0,24,144l9.84-.05,1.8,0h.65v0a4,4,0,0,0,3.36-2.75v0h0l0-.14a2,2,0,0,0,.06-.23c0-.09,0-.17.07-.27s0-.22,0-.34a3,3,0,0,0,.11-.68h0c.07-.56.16-1.4.34-2.44a36,36,0,0,1,4.38-11.82,48.4,48.4,0,0,1,8.5-10.81A79.74,79.74,0,0,1,64.4,105a88.59,88.59,0,0,1,11-6.56A93.57,93.57,0,0,1,93.61,91,103.15,103.15,0,0,1,110.16,88c3.89-.35,7.94-.38,7.94-.38,1.49,0,2.6,0,3,0l1.87,0c0,11.13,0,19.19,0,23.29a32.19,32.19,0,0,0,2.28,13,38.27,38.27,0,0,0,4.35,7.43c.32.42.67.82,1,1.23h0a31.84,31.84,0,0,0,10.19,8.11h0l.88.45v0A31.45,31.45,0,0,0,152,143.9l-.12-.06h.13s0,.06,0,.1l13.82,0a1.36,1.36,0,0,0,1.35-1.36l0-16.27a1.37,1.37,0,0,0-1.36-1.36l-4.18,0c-.65,0-1.63,0-2.87,0h-4.51a15.18,15.18,0,0,1-8.65-4.17,14,14,0,0,1-1.91-2.4,15.6,15.6,0,0,1-2.13-7.13l0,.11v-.37l-.06-23.32h.12c5.14,0,5.69,0,8.58,0,2.62,0,4.92-.1,6.79-.15a4.06,4.06,0,0,0,3.24-1.83s0,0,0,0,0,0,0,0l1-1.5.74-1.1h0l4.93-7.58A2.2,2.2,0,0,0,165.09,72Zm-52.55.28A108.75,108.75,0,0,0,97.86,74a105.19,105.19,0,0,0-13.1,3.46,109.66,109.66,0,0,0-18.23,8.11,113.12,113.12,0,0,0-9.71,5.85c-.9.62-3.47,2.39-6.64,4.92a80.49,80.49,0,0,0-6.29,5.43c-1.76,1.71-3.14,3.24-4.13,4.38V96.75a41.89,41.89,0,0,1,41.74-39.1h41.42c0,5.07,0,9.87,0,14.37l-2.14,0-1.9,0C115.86,72.11,114.35,72.13,112.54,72.23Z"/></g></g></svg>