<svg xmlns="http://www.w3.org/2000/svg" viewBox="0 0 410.39 124.86"><defs><style>.cls-1{fill:#511bc6;}</style></defs><title>Logo</title><g id="Layer_2" data-name="Layer 2"><g id="Layer_1-2" data-name="Layer 1"><path class="cls-1" d="M233,38.58l-21.14-.06a29.39,29.39,0,0,0-21,6.72c-10.4,8.91-10,21.8-9.94,23.38v50.16a4.53,4.53,0,0,0,4.53,4.52h12.33a4.52,4.52,0,0,0,4.52-4.52V77.1A16.2,16.2,0,0,1,207,65.59a16,16,0,0,1,5.17-3.45,16.22,16.22,0,0,1,6.34-1.25h14.4a4.48,4.48,0,0,0,4.48-4.47l0-13.35A4.49,4.49,0,0,0,233,38.58Z"/><path class="cls-1" d="M407.46,60.35a38.27,38.27,0,0,0-8-12,37.52,37.52,0,0,0-11.9-8.07,26,26,0,0,0-4-1.45,26.94,26.94,0,0,0-6.91-.73c-1,0-2,0-2.87,0v0H362.44l.24,0-32.94-.15a2.68,2.68,0,0,0-2.48,3.75h0l8.21,23.21h0V119a3.87,3.87,0,0,0,3.88,3.88H353a3.87,3.87,0,0,0,3.88-3.88V75a15.61,15.61,0,0,1,1.26-6.22,15.92,15.92,0,0,1,8.61-8.58A16.26,16.26,0,0,1,373,58.9a15.53,15.53,0,0,1,6.19,1.25,16.48,16.48,0,0,1,5.09,3.45,16,16,0,0,1,3.44,5.13A15.61,15.61,0,0,1,389,75v44a3.87,3.87,0,0,0,3.88,3.88h13.61a3.87,3.87,0,0,0,3.88-3.88V75A36.79,36.79,0,0,0,407.46,60.35Z"/><path class="cls-1" d="M319.65,52.18a41.24,41.24,0,0,0-5.15-5.34,42.88,42.88,0,0,0-17.93-9.36,42,42,0,0,0-10.26-1.25,43.23,43.23,0,0,0-16.64,3.21,41,41,0,0,0-22.83,23,47.55,47.55,0,0,0-3.36,18.16,46.1,46.1,0,0,0,3.36,17.82,43,43,0,0,0,9.2,14,42.26,42.26,0,0,0,30.27,12.45,43,43,0,0,0,10.22-1.21,39.64,39.64,0,0,0,19.61-11.37l0,0,.05-.06h0l2.39-2.35a3.8,3.8,0,0,0,.1-5.31c-.9-1-1.82-2-2.95-3.15-1.4-1.48-3.15-3.29-5.53-5.64l-.37-.36-.09-.09h0a3.85,3.85,0,0,0-5.21-.16l-2.43,2.43-.4.4,0,0a20.85,20.85,0,0,1-20.4,4.81l38.37-46.24A3.42,3.42,0,0,0,319.65,52.18ZM267.59,91.74h0c-.32-.64-.61-1.29-.87-1.94-.16-.38-.29-.76-.43-1.14L266,88c-.15-.47-.29-.94-.42-1.42-.05-.19-.11-.39-.16-.59q-.16-.69-.3-1.38-.07-.31-.12-.63c-.08-.45-.15-.9-.2-1.34,0-.22,0-.44-.07-.66,0-.44-.08-.88-.1-1.32,0-.23,0-.45,0-.67,0-.43,0-.86,0-1.29,0-.23,0-.46,0-.69,0-.41.05-.83.09-1.24s.07-.51.11-.77c.08-.61.18-1.21.31-1.8.08-.38.16-.76.26-1.14s.14-.47.21-.71.23-.75.36-1.12.17-.44.26-.66c.14-.38.29-.75.46-1.11s.19-.4.29-.6c.18-.38.37-.74.57-1.1l.31-.53c.22-.37.46-.73.7-1.08l.32-.45c.27-.37.56-.73.86-1.08.09-.12.19-.24.29-.35.35-.4.72-.78,1.11-1.15.06,0,.1-.11.16-.15a16.61,16.61,0,0,1,1.43-1.21c.29-.22.59-.41.89-.61s.44-.31.67-.45.56-.31.85-.46.52-.29.78-.41.54-.23.81-.35.57-.24.85-.34l.75-.25.92-.27.67-.16c.34-.08.67-.15,1-.21l.55-.09c.37-.06.75-.11,1.11-.14l.4,0c.43,0,.84-.06,1.25-.08h.21a26.69,26.69,0,0,1,7.76,1Z"/><path class="cls-1" d="M169.55,38.08H162.3l-.08,0-20.58,0q0-17.78.11-35.53A2.59,2.59,0,0,0,139.16,0H68.52A68.52,68.52,0,0,0,0,68.52v52.19a2.59,2.59,0,0,0,2.6,2.59l11.65-.06,2.12,0h.78v0a4.7,4.7,0,0,0,4-3.26v0h0a1.36,1.36,0,0,1,0-.17,2.68,2.68,0,0,0,.07-.27c0-.1.05-.2.07-.31a3.2,3.2,0,0,0,.07-.41,4.09,4.09,0,0,0,.13-.8h0c.08-.65.19-1.65.4-2.88a42.5,42.5,0,0,1,5.18-14c3.12-5.61,6.46-9.06,10.05-12.78A94,94,0,0,1,50.44,77.12a105.17,105.17,0,0,1,13.07-7.76A110.14,110.14,0,0,1,85,60.63,123,123,0,0,1,104.57,57c4.61-.41,9.39-.45,9.39-.45,1.76,0,3.07,0,3.53,0l2.21,0c0,13.17,0,22.7,0,27.55a38.17,38.17,0,0,0,2.7,15.39,44.76,44.76,0,0,0,5.15,8.78c.38.5.79,1,1.2,1.47l0,0a37.51,37.51,0,0,0,12.06,9.59h0c.63.34,1,.53,1,.53v0a37.68,37.68,0,0,0,12.32,3.31l-.15-.08.16,0s0,.07,0,.1l16.34,0a1.62,1.62,0,0,0,1.61-1.6l0-19.25a1.62,1.62,0,0,0-1.62-1.61l-4.94,0c-.76,0-1.92,0-3.39,0h-5.33a18,18,0,0,1-10.24-4.94,16.94,16.94,0,0,1-2.26-2.84,19,19,0,0,1-1.26-2.59,18.78,18.78,0,0,1-1.26-5.84l0,.14v-.45l-.07-27.59h.14c6.07-.05,6.73,0,10.15-.05,3.1,0,5.82-.11,8-.18a4.74,4.74,0,0,0,3.83-2.17l0,0s0,0,0,0l1.15-1.78.87-1.29h0l5.83-9A2.6,2.6,0,0,0,169.55,38.08Zm-62.17.33A127.26,127.26,0,0,0,90,40.56a123.54,123.54,0,0,0-15.5,4.09A129.73,129.73,0,0,0,53,54.24a133.4,133.4,0,0,0-11.48,6.92c-1.07.73-4.11,2.82-7.86,5.82a91.18,91.18,0,0,0-7.44,6.43c-2.08,2-3.72,3.82-4.88,5.17V67.42A49.54,49.54,0,0,1,70.66,21.17h49c0,6,0,11.68,0,17l-2.53,0-2.26,0C111.31,38.27,109.52,38.3,107.38,38.41Z"/></g></g></svg>