<svg xmlns="http://www.w3.org/2000/svg" viewBox="0 0 411.32 179.55"><defs><style>.cls-1{fill:#511bc6;}</style></defs><title>LogoCars</title><g id="Layer_2" data-name="Layer 2"><g id="Layer_1-2" data-name="Layer 1"><path class="cls-1" d="M202.79,119.05V77.27A16.34,16.34,0,0,1,204,70.92a16,16,0,0,1,3.46-5.18,15.78,15.78,0,0,1,5.18-3.45A16.1,16.1,0,0,1,219,61h14.43a4.5,4.5,0,0,0,4.5-4.48l0-13.38a4.51,4.51,0,0,0-4.49-4.51l-21.19,0a29.41,29.41,0,0,0-21,6.74c-10.43,8.92-10,21.84-10,23.42v50.28a4.53,4.53,0,0,0,4.53,4.53h12.37A4.53,4.53,0,0,0,202.79,119.05Z"/><path class="cls-1" d="M408.38,60.49a38.46,38.46,0,0,0-8.05-12A37.4,37.4,0,0,0,388.4,40.4a25.72,25.72,0,0,0-4-1.47,28,28,0,0,0-6.92-.73c-1,0-2,0-2.88,0v0h-9.5L330.4,38a2.66,2.66,0,0,0-2.52,3.56L336.22,65h0v54.25a3.89,3.89,0,0,0,3.88,3.89h13.65a3.89,3.89,0,0,0,3.89-3.89V75.12a15.71,15.71,0,0,1,1.26-6.24,16.18,16.18,0,0,1,15-9.85,15.36,15.36,0,0,1,6.19,1.26,16.11,16.11,0,0,1,8.56,8.59,15.88,15.88,0,0,1,1.26,6.24v44.14a3.89,3.89,0,0,0,3.88,3.89h13.65a3.89,3.89,0,0,0,3.89-3.89V75.12A36.73,36.73,0,0,0,408.38,60.49Z"/><path class="cls-1" d="M320.38,52.3a42.91,42.91,0,0,0-5.17-5.36,43.07,43.07,0,0,0-18-9.38A42.61,42.61,0,0,0,287,36.31a43.22,43.22,0,0,0-16.68,3.22A41.09,41.09,0,0,0,247.4,62.6,47.58,47.58,0,0,0,244,80.81a46.07,46.07,0,0,0,3.37,17.85,43.07,43.07,0,0,0,9.22,14A42.49,42.49,0,0,0,287,125.15a43.15,43.15,0,0,0,10.24-1.22,44,44,0,0,0,5.59-1.78,42.24,42.24,0,0,0,14.06-9.62l0,0,.06,0h0l2.39-2.36a3.81,3.81,0,0,0,.1-5.33l-2.95-3.15c-1.41-1.48-3.17-3.29-5.55-5.66l-.37-.36-.09-.08s0,0,0,0a3.88,3.88,0,0,0-1-.68,3.77,3.77,0,0,0-4.25.53l-2.44,2.43-.4.41h0a21,21,0,0,1-9.15,5.07,21.2,21.2,0,0,1-11.3-.24L320.4,56.66A3.44,3.44,0,0,0,320.38,52.3ZM268.2,92h0c-.33-.64-.61-1.29-.88-1.94-.16-.38-.29-.76-.42-1.14s-.18-.47-.26-.7c-.15-.47-.29-1-.42-1.42-.05-.2-.11-.4-.16-.59q-.17-.69-.3-1.38c-.05-.22-.09-.43-.12-.64-.08-.45-.15-.9-.2-1.35,0-.22-.05-.44-.07-.66,0-.44-.08-.88-.1-1.32,0-.22,0-.45,0-.67,0-.43,0-.86,0-1.29,0-.23,0-.46,0-.69,0-.42,0-.84.09-1.25s.07-.51.11-.77c.08-.61.18-1.21.31-1.8.08-.38.16-.77.26-1.14s.14-.48.21-.71c.12-.38.23-.76.36-1.13s.17-.44.26-.66c.14-.38.3-.75.46-1.12.09-.2.19-.4.29-.6.18-.37.37-.74.58-1.1l.31-.53c.22-.37.46-.73.7-1.08.1-.15.21-.31.32-.45.27-.38.56-.74.86-1.09l.29-.34c.35-.4.73-.79,1.11-1.16l.16-.15a18.43,18.43,0,0,1,1.44-1.21c.29-.22.59-.41.89-.61s.44-.31.67-.45.57-.31.85-.46.52-.29.78-.42l.82-.34.85-.35L279,59c.31-.1.62-.2.92-.28l.68-.16c.33-.08.67-.15,1-.21l.55-.09c.38-.06.75-.11,1.12-.14l.4,0c.43,0,.84-.06,1.25-.08h.21a26.81,26.81,0,0,1,7.78.95Z"/><path class="cls-1" d="M169.93,38.17h-7.34l-20.63,0q0-17.8.11-35.6A2.59,2.59,0,0,0,139.48,0H68.68A68.68,68.68,0,0,0,0,68.67V121a2.6,2.6,0,0,0,2.61,2.6l11.67-.06,2.13,0h.78v0a4.73,4.73,0,0,0,4-3.27v0h0a1.36,1.36,0,0,1,0-.17l.06-.27a2.81,2.81,0,0,0,.08-.31c0-.15,0-.27.07-.41a4.26,4.26,0,0,0,.13-.8h0c.08-.66.19-1.65.39-2.89a42.79,42.79,0,0,1,5.2-14c3.12-5.62,6.48-9.09,10.08-12.81A94.17,94.17,0,0,1,50.55,77.29a104.87,104.87,0,0,1,13.1-7.77,110.55,110.55,0,0,1,21.54-8.75,122.62,122.62,0,0,1,19.62-3.62c4.61-.41,9.41-.45,9.41-.45,1.77,0,3.08,0,3.54,0l2.21,0c0,13.2,0,22.75,0,27.61a38.26,38.26,0,0,0,2.71,15.43,45.44,45.44,0,0,0,5.15,8.8c.39.5.8,1,1.21,1.46h0a37.64,37.64,0,0,0,12.08,9.61h0c.63.34,1,.53,1,.53v0a37.31,37.31,0,0,0,12.35,3.31l-.15-.07.16,0s0,.07,0,.1l16.38,0a1.62,1.62,0,0,0,1.61-1.61q0-9.64,0-19.29a1.63,1.63,0,0,0-1.62-1.61l-5,0c-.77,0-1.93,0-3.4,0h-5.35a18.09,18.09,0,0,1-10.26-5,16.89,16.89,0,0,1-2.26-2.85,18,18,0,0,1-1.27-2.6,18.77,18.77,0,0,1-1.26-5.85l0,.14v-.45L142,56.73h.14c6.09,0,6.74,0,10.17,0,3.11,0,5.84-.12,8.05-.19a4.77,4.77,0,0,0,3.84-2.16l0,0s0,0,0,0l1.16-1.78c.29-.43.58-.88.87-1.3h0l5.84-9A2.61,2.61,0,0,0,169.93,38.17Zm-52.53.1-2.26,0c-3.58.05-5.37.08-7.52.2a127.86,127.86,0,0,0-17.4,2.15,125.75,125.75,0,0,0-15.53,4.1,130.44,130.44,0,0,0-21.61,9.61A134,134,0,0,0,41.57,61.3c-1.07.73-4.12,2.83-7.88,5.83a95,95,0,0,0-7.45,6.44c-2.08,2-3.73,3.84-4.9,5.19V67.58A49.64,49.64,0,0,1,70.82,21.22h49.1c0,6,0,11.7,0,17Z"/><path class="cls-1" d="M197.12,171.16a1.79,1.79,0,0,0-2.4,0,9.47,9.47,0,0,1-6.49,2.44,10.07,10.07,0,0,1-5-1.24,8.67,8.67,0,0,1-3.43-3.44,10.76,10.76,0,0,1,0-10,8.73,8.73,0,0,1,3.43-3.44,10.07,10.07,0,0,1,5-1.24,9.54,9.54,0,0,1,6.49,2.41,1.79,1.79,0,0,0,2.39,0l1.89-1.73a1.81,1.81,0,0,0,0-2.64,14.51,14.51,0,0,0-4-2.59,17.68,17.68,0,0,0-7.11-1.39,17.41,17.41,0,0,0-8.42,2,15,15,0,0,0-5.88,5.58,16.27,16.27,0,0,0,0,16.13,15.13,15.13,0,0,0,5.88,5.59,17.43,17.43,0,0,0,8.37,2,17.66,17.66,0,0,0,7.14-1.39,14,14,0,0,0,4.06-2.63,1.8,1.8,0,0,0,0-2.63Z"/><path class="cls-1" d="M225.77,155.75h-3.51a1.62,1.62,0,0,0-1.62,1.62v.85a8.85,8.85,0,0,0-7-2.82,12.13,12.13,0,0,0-5.95,1.48,10.57,10.57,0,0,0-4.17,4.19,13.9,13.9,0,0,0,0,12.64,10.57,10.57,0,0,0,4.17,4.19,12.12,12.12,0,0,0,5.95,1.47c3.18,0,5.6-1,7.27-3v1.07a1.63,1.63,0,0,0,1.62,1.62h3.21a1.63,1.63,0,0,0,1.62-1.62v-20A1.63,1.63,0,0,0,225.77,155.75Zm-6.69,16.33a6,6,0,0,1-8.52,0,7.37,7.37,0,0,1,0-9.39,6.06,6.06,0,0,1,8.52,0,7.37,7.37,0,0,1,0,9.39Z"/><path class="cls-1" d="M246.59,155.47a11.38,11.38,0,0,0-3.26.8,7.58,7.58,0,0,0-3.27,2.55v-1.3a1.77,1.77,0,0,0-1.77-1.77h-2.9a1.77,1.77,0,0,0-1.77,1.77v19.94a1.56,1.56,0,0,0,1.56,1.57h3.62a1.56,1.56,0,0,0,1.56-1.57V167.12a5.89,5.89,0,0,1,1.65-4,5.59,5.59,0,0,1,2-1.23,5.81,5.81,0,0,1,2.32-.32H247a1,1,0,0,0,1-1v-3.77A1.36,1.36,0,0,0,246.59,155.47Z"/><path class="cls-1" d="M266.5,166a40.47,40.47,0,0,0-4.67-1,20.61,20.61,0,0,1-3.73-.82,1.56,1.56,0,0,1-1.16-1.52,1.77,1.77,0,0,1,1.08-1.55,6.72,6.72,0,0,1,3.24-.61,13.46,13.46,0,0,1,5.55,1.15,1.37,1.37,0,0,0,1.76-.69l1.08-2.31a1.38,1.38,0,0,0-.71-1.86,16.2,16.2,0,0,0-2.77-.85,22.67,22.67,0,0,0-4.91-.55,15.74,15.74,0,0,0-5.77,1,8.17,8.17,0,0,0-3.72,2.66,6.37,6.37,0,0,0-1.28,3.91,5.66,5.66,0,0,0,1.36,4.07,7.32,7.32,0,0,0,3.23,2,34,34,0,0,0,4.71,1,17.08,17.08,0,0,1,3.59.73,1.51,1.51,0,0,1,1.17,1.43q0,2.11-4.28,2.12a16.76,16.76,0,0,1-6.88-1.58,1.36,1.36,0,0,0-1.83.66l-1.09,2.35a1.36,1.36,0,0,0,.63,1.82,17.37,17.37,0,0,0,3.24,1.14,22.48,22.48,0,0,0,5.67.71,16.9,16.9,0,0,0,5.91-.93,8.31,8.31,0,0,0,3.78-2.61A6.14,6.14,0,0,0,271,172a5.58,5.58,0,0,0-1.34-4A7,7,0,0,0,266.5,166Z"/></g></g></svg>