<svg xmlns="http://www.w3.org/2000/svg" viewBox="0 0 411.32 125.15"><defs><style>.cls-1{fill:#511bc6;}.cls-2{fill:#33c7d1;}</style></defs><title>LogoAzul</title><g id="Layer_2" data-name="Layer 2"><g id="Layer_1-2" data-name="Layer 1"><path class="cls-1" d="M170.86,101l-5,0c-.77,0-1.93,0-3.4,0h-5.35a18.09,18.09,0,0,1-10.26-5,16.89,16.89,0,0,1-2.26-2.85,18,18,0,0,1-1.27-2.6,18.77,18.77,0,0,1-1.26-5.85l0,.14v-.45L142,56.46l.18-18.16v0H142q0-17.86.11-35.72A2.59,2.59,0,0,0,139.48,0H68.68A68.68,68.68,0,0,0,0,68.67V121a2.6,2.6,0,0,0,2.61,2.6l11.67-.06,2.13,0h.78v0a4.73,4.73,0,0,0,4.2-4.33c-.13-2.49-.21-5.08-.22-7.77q0-4.41.14-8.48l0-23.68V67.58A49.64,49.64,0,0,1,70.82,21.22h49.1q0,9.06,0,17.11l0,18.18c0,13.33,0,23,0,27.86a38.26,38.26,0,0,0,2.71,15.43,45.44,45.44,0,0,0,5.15,8.8c.39.5.8,1,1.21,1.46h0a37.64,37.64,0,0,0,12.08,9.61h0c.63.34,1,.53,1,.53v0a37.31,37.31,0,0,0,12.35,3.31l-.15-.07.16,0s0,.07,0,.1l16.38,0a1.62,1.62,0,0,0,1.61-1.61q0-9.64,0-19.29A1.63,1.63,0,0,0,170.86,101Z"/><path class="cls-1" d="M21.39,117.56V114h0C21.4,115.2,21.4,116.38,21.39,117.56Z"/><path class="cls-1" d="M212.31,38.61l21.19,0A4.51,4.51,0,0,1,238,43.17l0,13.38a4.5,4.5,0,0,1-4.5,4.48H219a16.1,16.1,0,0,0-6.35,1.26,15.78,15.78,0,0,0-5.18,3.45A16,16,0,0,0,204,70.92a16.34,16.34,0,0,0-1.25,6.35v41.78a4.53,4.53,0,0,1-4.53,4.53H185.89a4.53,4.53,0,0,1-4.53-4.53V68.77c-.07-1.58-.47-14.5,10-23.42A29.41,29.41,0,0,1,212.31,38.61Z"/><path class="cls-1" d="M408.38,60.49a38.46,38.46,0,0,0-8.05-12A37.4,37.4,0,0,0,388.4,40.4a25.72,25.72,0,0,0-4-1.47,28,28,0,0,0-6.92-.73c-1,0-2,0-2.88,0v0H357.85c-2.3.65-13.08,3.95-18.58,14.61a27.83,27.83,0,0,0-3,12.2h0v54.25a3.89,3.89,0,0,0,3.88,3.89h13.65a3.89,3.89,0,0,0,3.89-3.89V75.12a15.71,15.71,0,0,1,1.26-6.24,16.18,16.18,0,0,1,15-9.85,15.36,15.36,0,0,1,6.19,1.26,16.11,16.11,0,0,1,8.56,8.59,15.88,15.88,0,0,1,1.26,6.24v44.14a3.89,3.89,0,0,0,3.88,3.89h13.65a3.89,3.89,0,0,0,3.89-3.89V75.12A36.73,36.73,0,0,0,408.38,60.49Z"/><path class="cls-1" d="M265.38,76.9c0-.26.07-.51.11-.77C265.45,76.39,265.4,76.64,265.38,76.9Z"/><path class="cls-1" d="M265.25,78.84c0-.23,0-.46,0-.69C265.28,78.38,265.26,78.61,265.25,78.84Z"/><path class="cls-1" d="M265.27,80.8c0-.22,0-.45,0-.67C265.26,80.35,265.26,80.58,265.27,80.8Z"/><path class="cls-1" d="M265.8,74.33c.08-.38.16-.77.26-1.14C266,73.56,265.88,74,265.8,74.33Z"/><path class="cls-1" d="M266.27,72.48c.12-.38.23-.76.36-1.13C266.5,71.72,266.39,72.1,266.27,72.48Z"/><path class="cls-1" d="M266.89,70.69c.14-.38.3-.75.46-1.12C267.19,69.94,267,70.31,266.89,70.69Z"/><path class="cls-1" d="M268.11,91.76c0,.06.05.13.08.19h0c-.33-.64-.61-1.29-.88-1.94C267.56,90.59,267.82,91.18,268.11,91.76Z"/><path class="cls-1" d="M267.64,69c.18-.37.37-.74.58-1.1C268,68.23,267.82,68.6,267.64,69Z"/><path class="cls-1" d="M265.44,82.78c0-.22-.05-.44-.07-.66C265.39,82.34,265.41,82.56,265.44,82.78Z"/><path class="cls-1" d="M266.68,88.29l.22.57c-.09-.23-.18-.47-.26-.7A.5.5,0,0,1,266.68,88.29Z"/><path class="cls-1" d="M265.76,84.77c-.05-.22-.09-.43-.12-.64C265.67,84.34,265.71,84.55,265.76,84.77Z"/><path class="cls-1" d="M266.22,86.74c-.05-.2-.11-.39-.16-.59C266.11,86.35,266.17,86.54,266.22,86.74Z"/><path class="cls-1" d="M284.94,58h0Z"/><path class="cls-1" d="M283.29,58.11l.4,0Z"/><path class="cls-1" d="M281.62,58.34l.55-.09Z"/><path class="cls-1" d="M279.94,58.71l.68-.16Z"/><path class="cls-1" d="M274.3,61.25c-.3.2-.6.38-.9.61A18.29,18.29,0,0,0,272,63.07a18.43,18.43,0,0,1,1.44-1.21C273.7,61.64,274,61.45,274.3,61.25Z"/><path class="cls-1" d="M268.53,67.34c.22-.37.46-.73.7-1.08C269,66.61,268.75,67,268.53,67.34Z"/><path class="cls-1" d="M270.7,64.38c.35-.4.73-.79,1.11-1.16C271.43,63.59,271.05,64,270.7,64.38Z"/><path class="cls-1" d="M278.27,59.23,279,59Z"/><path class="cls-1" d="M275,60.8c.28-.17.57-.31.85-.46C275.54,60.49,275.25,60.63,275,60.8Z"/><path class="cls-1" d="M276.6,59.92l.82-.34Z"/><path class="cls-1" d="M269.55,65.81c.27-.38.56-.74.86-1.09C270.11,65.07,269.82,65.43,269.55,65.81Z"/><path class="cls-1" d="M316.48,101.61c-1.41-1.48-3.17-3.29-5.55-5.66l-.37-.36-.09-.08s0,0,0,0a3.88,3.88,0,0,0-1-.68,3.77,3.77,0,0,0-4.25.53l-2.44,2.43c-.13.14-.27.27-.4.4l0,0a21,21,0,0,1-9.15,5.07,21.2,21.2,0,0,1-11.3-.24L320.4,56.66a3.44,3.44,0,0,0,0-4.36,42.91,42.91,0,0,0-5.17-5.36,43.07,43.07,0,0,0-18-9.38A42.61,42.61,0,0,0,287,36.31a43.22,43.22,0,0,0-16.68,3.22A41.09,41.09,0,0,0,247.4,62.6,47.58,47.58,0,0,0,244,80.81a46.07,46.07,0,0,0,3.37,17.85,43.07,43.07,0,0,0,9.22,14A42.49,42.49,0,0,0,287,125.15a43.15,43.15,0,0,0,10.24-1.22,44,44,0,0,0,5.59-1.78,42.24,42.24,0,0,0,14.06-9.62l0,0,.06,0h0l2.39-2.36a3.81,3.81,0,0,0,.1-5.33ZM268.2,92h0c0-.06-.05-.13-.08-.19-.29-.58-.55-1.17-.79-1.76-.16-.38-.29-.76-.42-1.14l-.22-.57a.5.5,0,0,0,0-.13c-.15-.47-.29-1-.42-1.42-.05-.2-.11-.39-.16-.59q-.17-.69-.3-1.38c-.05-.22-.09-.43-.12-.64-.08-.45-.15-.9-.2-1.35,0-.22-.05-.44-.07-.66,0-.44-.08-.88-.1-1.32,0-.22,0-.45,0-.67,0-.43,0-.86,0-1.29,0-.23,0-.46,0-.69,0-.42,0-.84.09-1.25s.07-.51.11-.77c.08-.61.18-1.21.31-1.8.08-.38.16-.77.26-1.14s.14-.48.21-.71c.12-.38.23-.76.36-1.13s.17-.44.26-.66c.14-.38.3-.75.46-1.12.09-.2.19-.4.29-.6.18-.37.37-.74.58-1.1l.31-.53c.22-.37.46-.73.7-1.08.1-.15.21-.31.32-.45.27-.38.56-.74.86-1.09l.29-.34c.35-.4.73-.79,1.11-1.16l.16-.15a18.29,18.29,0,0,1,1.43-1.21c.3-.23.6-.41.9-.61s.44-.31.67-.45.57-.31.85-.46.52-.29.78-.42l.82-.34.85-.35L279,59c.31-.1.62-.2.92-.28l.68-.16c.33-.08.67-.15,1-.21l.55-.09c.38-.06.75-.11,1.12-.14l.4,0c.43,0,.84-.06,1.25-.08h.21a26.81,26.81,0,0,1,7.78.95Z"/><path class="cls-2" d="M169.93,38.17h-7.34c-16.65,0-42.69.06-45.19.09l-2.26,0c-3.58.05-5.37.08-7.52.2a127.86,127.86,0,0,0-17.4,2.15,125.75,125.75,0,0,0-15.53,4.1,130.44,130.44,0,0,0-21.61,9.61A134,134,0,0,0,41.57,61.3c-1.07.73-4.12,2.83-7.88,5.83a95,95,0,0,0-7.45,6.44c-2.08,2-3.73,3.84-4.9,5.19v0c-.27,21.7-.28,32.42-.17,37.13v2.58h0c0,.49,0,1,0,1.46v.28h0c.06-.24.13-.49.18-.75s0-.27.07-.41a4.26,4.26,0,0,0,.13-.8h0c.08-.66.19-1.65.39-2.89a42.79,42.79,0,0,1,5.2-14c3.12-5.62,6.48-9.09,10.08-12.81A94.17,94.17,0,0,1,50.55,77.29a104.87,104.87,0,0,1,13.1-7.77,110.55,110.55,0,0,1,21.54-8.75,122.62,122.62,0,0,1,19.62-3.62c4.61-.41,9.41-.45,9.41-.45,1.77,0,3.08,0,3.54,0,3.33.08,10,.12,24.39,0,6.09,0,6.74,0,10.17,0,3.11,0,5.84-.12,8.05-.19a4.77,4.77,0,0,0,3.84-2.16l0,0s0,0,0,0l1.16-1.78c.29-.43.58-.88.87-1.3h0l5.84-9A2.61,2.61,0,0,0,169.93,38.17Z"/><path class="cls-2" d="M336.22,65l-8.34-23.44A2.66,2.66,0,0,1,330.4,38l34.69.19A34.1,34.1,0,0,0,336.22,65Z"/></g></g></svg>